<svg width="120" height="120" viewBox="0 0 120 120" fill="none" xmlns="http://www.w3.org/2000/svg">
<rect width="120" height="120" rx="27" fill="#F2F2F7"/>
<path d="M21.4453 28.4766C21.4453 25.8877 23.544 23.7891 26.1328 23.7891H77.8125C80.4013 23.7891 82.5 25.8877 82.5 28.4766V32.3438C82.5 34.9326 80.4013 37.0312 77.8125 37.0312H26.1328C23.544 37.0312 21.4453 34.9326 21.4453 32.3438V28.4766Z" fill="#6236FF"/>
<path d="M92.6672 35.9407C93.2259 35.9407 93.6585 35.7485 93.9529 35.3159L99.162 27.6375C99.3662 27.3431 99.4504 27.0246 99.4504 26.7483C99.4504 25.9552 98.8195 25.3484 97.9964 25.3484C97.4436 25.3484 97.0832 25.5466 96.7467 26.0753L92.6491 32.444L90.6364 30.1969C90.354 29.8785 90.0116 29.7223 89.5609 29.7223C88.7378 29.7223 88.125 30.3231 88.125 31.1282C88.125 31.4947 88.2211 31.7771 88.5396 32.1316L91.4535 35.418C91.7719 35.7845 92.1685 35.9407 92.6672 35.9407Z" fill="#6236FF"/>
<path d="M21.4453 58.0078C21.4453 55.419 23.544 53.3203 26.1328 53.3203H77.8125C80.4013 53.3203 82.5 55.419 82.5 58.0078V61.875C82.5 64.4638 80.4013 66.5625 77.8125 66.5625H26.1328C23.544 66.5625 21.4453 64.4638 21.4453 61.875V58.0078Z" fill="#1DB322"/>
<path d="M92.6672 65.472C93.2259 65.472 93.6585 65.2797 93.9529 64.8471L99.162 57.1687C99.3662 56.8743 99.4504 56.5559 99.4504 56.2795C99.4504 55.4864 98.8195 54.8796 97.9964 54.8796C97.4436 54.8796 97.0832 55.0779 96.7467 55.6066L92.6491 61.9752L90.6364 59.7282C90.354 59.4098 90.0116 59.2535 89.5609 59.2535C88.7378 59.2535 88.125 59.8544 88.125 60.6594C88.125 61.0259 88.2211 61.3083 88.5396 61.6628L91.4535 64.9493C91.7719 65.3158 92.1685 65.472 92.6672 65.472Z" fill="#1DB322"/>
<path d="M21.4453 87.5391C21.4453 84.9502 23.544 82.8516 26.1328 82.8516H77.8125C80.4013 82.8516 82.5 84.9502 82.5 87.5391V91.4062C82.5 93.9951 80.4013 96.0938 77.8125 96.0938H26.1328C23.544 96.0938 21.4453 93.9951 21.4453 91.4062V87.5391Z" fill="#FF9F4F"/>
<path d="M92.6672 95.0032C93.2259 95.0032 93.6585 94.811 93.9529 94.3784L99.162 86.7C99.3662 86.4056 99.4504 86.0871 99.4504 85.8108C99.4504 85.0177 98.8195 84.4109 97.9964 84.4109C97.4436 84.4109 97.0832 84.6091 96.7467 85.1378L92.6491 91.5065L90.6364 89.2594C90.354 88.941 90.0116 88.7848 89.5609 88.7848C88.7378 88.7848 88.125 89.3856 88.125 90.1907C88.125 90.5572 88.2211 90.8396 88.5396 91.1941L91.4535 94.4805C91.7719 94.847 92.1685 95.0032 92.6672 95.0032Z" fill="#FF9F4F"/>
</svg>
